<!-- Generated by IcoMoon.io -->
<svg version="1.1" xmlns="http://www.w3.org/2000/svg" width="1150" height="1024" viewBox="0 0 1150 1024">
<title></title>
<g id="icomoon-ignore">
</g>
<path fill="#f8c825" d="M1112.348 568.959l-85.449 42.808 85.44 42.804c21.682 10.851 35.165 32.694 35.174 56.996 0.009 24.316-13.468 46.181-35.167 57.061l-482.348 241.646c-17.609 8.812-36.927 13.22-56.244 13.22s-38.625-4.404-56.233-13.218l-482.348-241.646c-21.709-10.887-35.183-32.75-35.174-57.066 0.009-24.302 13.492-46.145 35.181-57.003l85.431-42.799-85.438-42.804c-21.7-10.882-35.174-32.732-35.174-57.032s13.474-46.15 35.163-57.030l85.449-42.808-85.438-42.801c-21.7-10.885-35.174-32.734-35.174-57.034 0-24.298 13.477-46.147 35.167-57.023l482.345-241.651c35.221-17.628 77.262-17.628 112.477-0.002l482.354 241.642c21.697 10.884 35.174 32.737 35.174 57.032 0 24.3-13.474 46.152-35.169 57.032 0 0-0.007 0.002-0.009 0.004l-85.44 42.801 85.44 42.804c21.7 10.885 35.174 32.734 35.174 57.034s-13.474 46.15-35.165 57.032zM541.109 563.648c20.44 10.233 44.856 10.233 65.307-0.002l482.323-241.63c5.242-2.63 6.022-7.244 6.022-9.759s-0.784-7.13-6.022-9.757l-482.33-241.635c-10.22-5.116-21.435-7.673-32.648-7.673-11.217 0-22.435 2.556-32.661 7.676l-482.332 241.637c-5.229 2.623-6.013 7.238-6.013 9.753s0.78 7.13 6.022 9.759zM967.912 641.311l-337.916 169.288c-17.609 8.812-36.927 13.22-56.244 13.22-19.315 0-38.623-4.404-56.23-13.218l-337.925-169.29-120.829 60.533c-5.233 2.618-6.013 7.226-6.013 9.739-0.002 2.522 0.78 7.143 6.022 9.773l482.33 241.637c20.44 10.236 44.856 10.233 65.307-0.002l482.332-241.637c5.233-2.623 6.015-7.247 6.013-9.768 0-2.517-0.782-7.123-6.004-9.737zM1094.757 511.927c0-2.517-0.78-7.13-6.022-9.759l-120.821-60.528-337.92 169.288c-17.609 8.816-36.929 13.222-56.242 13.222s-38.625-4.404-56.23-13.218l-337.925-169.29-120.829 60.533c-5.233 2.625-6.013 7.235-6.013 9.755 0 2.515 0.78 7.13 6.022 9.757l482.33 241.635c20.44 10.236 44.856 10.233 65.307-0.002l482.33-241.637c5.233-2.625 6.016-7.24 6.013-9.755z"></path>
</svg>
