<!-- Generated by IcoMoon.io -->
<svg version="1.1" xmlns="http://www.w3.org/2000/svg" width="1024" height="1024" viewBox="0 0 1024 1024">
<title></title>
<g id="icomoon-ignore">
</g>
<path fill="#f8c825" d="M1024 512c0 24.438-8.25 47.5-23.188 64.94l-8.938 10.438c-19.748 23.030-32.186 69.436-26.624 99.312l2.532 13.5c4.218 22.562-0.156 46.656-12.376 67.812s-30.876 37-52.532 44.624l-12.968 4.562c-28.656 10.094-62.624 44.062-72.718 72.718l-4.562 12.968c-13.564 38.5-53.72 66.468-95.532 66.468-5.72 0-11.406-0.532-16.938-1.532l-13.468-2.562c-4.782-0.874-10.094-1.312-15.844-1.312-29.468 0-64.594 11.75-83.5 27.938l-10.406 8.938c-17.438 14.938-40.5 23.188-64.938 23.188s-47.5-8.25-64.936-23.19l-10.438-8.938c-18.874-16.188-54-27.938-83.468-27.938-5.75 0-11.062 0.436-15.844 1.312l-13.5 2.532c-5.5 1.030-11.188 1.562-16.938 1.562-41.782 0-81.938-27.968-95.5-66.468l-4.562-12.968c-10.094-28.656-44.094-62.624-72.718-72.718l-12.938-4.562c-21.686-7.624-40.342-23.468-52.562-44.624s-16.626-45.25-12.376-67.812l2.5-13.5c5.594-29.876-6.844-76.282-26.594-99.344l-8.938-10.406c-14.938-17.438-23.188-40.516-23.188-64.938s8.218-47.484 23.184-64.94l8.938-10.422c19.75-23.062 32.188-69.468 26.594-99.328l-2.5-13.484c-4.248-22.578 0.156-46.672 12.376-67.828s30.876-37.016 52.532-44.64l12.968-4.562c28.624-10.094 62.624-44.062 72.718-72.718l4.532-12.938c13.594-38.53 53.75-66.484 95.532-66.484 5.72 0 11.438 0.514 16.938 1.546l13.5 2.532c4.782 0.89 10.094 1.344 15.844 1.344 29.468 0 64.594-11.764 83.5-27.968l10.406-8.922c17.438-14.954 40.5-23.188 64.938-23.188s47.5 8.234 64.938 23.19l10.406 8.922c18.906 16.202 54.032 27.968 83.5 27.968 5.72 0 11.062-0.454 15.844-1.344l13.5-2.532c5.53-1.030 11.218-1.562 16.906-1.562 41.814 0 81.97 27.968 95.532 66.5l4.562 12.938c10.094 28.656 44.062 62.624 72.718 72.718l12.968 4.562c21.656 7.624 40.312 23.484 52.532 44.64s16.626 45.25 12.376 67.828l-2.532 13.484c-5.564 29.86 6.874 76.266 26.624 99.328l8.938 10.422c14.938 17.454 23.188 40.516 23.188 64.938zM968.408 474.828l-8.906-10.406c-28.282-32.986-44.156-92.266-36.188-134.954l2.532-13.5c4.906-26.078-12.124-55.548-37.156-64.36l-12.938-4.562c-40.968-14.436-84.374-57.828-98.812-98.796l-4.532-12.938c-7.624-21.672-31.406-38-55.312-38-3.062 0-6.124 0.282-9.062 0.828l-13.5 2.532c-7.344 1.374-15.312 2.078-23.688 2.078-39.874 0-84.594-15.374-111.25-38.234l-10.438-8.938c-9.718-8.328-22.906-12.906-37.156-12.906s-27.438 4.578-37.156 12.906l-10.438 8.938c-26.688 22.858-71.374 38.234-111.25 38.234-8.376 0-16.344-0.702-23.688-2.078l-13.5-2.532c-2.938-0.546-6-0.828-9.094-0.828-23.876 0-47.658 16.344-55.282 38l-4.562 12.938c-14.406 40.968-57.814 84.358-98.782 98.796l-12.938 4.562c-25.032 8.814-42.062 38.282-37.156 64.36l2.5 13.5c8 42.688-7.874 101.97-36.156 134.938l-8.906 10.422c-17.282 20.156-17.282 54.188 0 74.36l8.906 10.376c28.282 33 44.156 92.25 36.188 134.968l-2.532 13.468c-4.906 26.124 12.126 55.562 37.154 64.378l12.938 4.562c40.97 14.436 84.376 57.812 98.782 98.812l4.562 12.938c7.626 21.656 31.406 38 55.282 38 3.126 0 6.156-0.282 9.094-0.844l13.5-2.532c7.344-1.374 15.312-2.062 23.688-2.062 39.874 0 84.562 15.374 111.25 38.25l10.438 8.938c9.718 8.314 22.906 12.876 37.156 12.876s27.438-4.564 37.156-12.876l10.438-8.938c26.656-22.874 71.374-38.25 111.25-38.25 8.376 0 16.344 0.686 23.688 2.062l13.5 2.562c2.938 0.53 6 0.812 9.062 0.812 23.906 0 47.656-16.344 55.312-38l4.532-12.938c14.436-40.968 57.844-84.374 98.812-98.812l12.938-4.562c25.032-8.814 42.032-38.252 37.156-64.376l-2.532-13.468c-7.968-42.686 7.906-101.968 36.188-134.968l8.906-10.376c17.282-20.172 17.282-54.204 0.002-74.36z"></path>
<path fill="#f8c825" d="M725.28 277.28c-5.906 0-11.218 2.39-15.094 6.25l-426.656 426.672c-3.876 3.876-6.25 9.188-6.25 15.062 0 11.812 9.532 21.376 21.312 21.376 5.906 0 11.218-2.406 15.094-6.25l426.656-426.688c3.876-3.86 6.25-9.188 6.25-15.078 0-11.782-9.532-21.344-21.312-21.344z"></path>
<path fill="#f8c825" d="M490.592 383.952c0 58.906-47.75 106.672-106.656 106.672s-106.656-47.766-106.656-106.672c0-58.906 47.75-106.672 106.656-106.672s106.656 47.766 106.656 106.672zM447.936 383.952c0-35.296-28.718-64-64-64s-64 28.704-64 64c0 35.296 28.718 64 64 64s64-28.704 64-64z"></path>
<path fill="#f8c825" d="M746.592 639.952c0 58.906-47.75 106.688-106.656 106.688s-106.656-47.782-106.656-106.688c0-58.906 47.75-106.672 106.656-106.672s106.656 47.766 106.656 106.672zM703.936 639.952c0-35.312-28.718-64-64-64s-64 28.688-64 64c0 35.312 28.718 64 64 64s64-28.688 64-64z"></path>
</svg>
