<!-- Generated by IcoMoon.io -->
<svg version="1.1" xmlns="http://www.w3.org/2000/svg" width="784" height="1024" viewBox="0 0 784 1024">
<title></title>
<g id="icomoon-ignore">
</g>
<path fill="#f8c825" d="M24.32 420.196v-123.129c0-21.674 14.326-40.044 33.964-46.069 32.532-150.547 165.678-250.997 334.482-250.997 83.165 0 159.152 24.306 219.747 70.288 59.109 44.86 98.489 106.707 114.481 179.481 22.143 4.243 38.937 23.833 38.937 47.298v123.129c0 26.556-21.501 48.16-47.932 48.16h-10.984v60.761c0 13.523-10.908 24.482-24.368 24.482h-72.526c-51.159 63.882-129.578 104.844-217.352 104.844-122.418 0-226.663-79.655-264.096-190.087h-56.418c-26.432 0-47.934-21.604-47.934-48.16zM116.889 419.391c-1.977-13.438-3.015-27.178-3.015-41.158 0-27.92 4.104-54.894 11.707-80.362h-52.526v121.52zM542.627 553.599h-164c-13.457 0-24.368-10.96-24.368-24.482s10.91-24.482 24.368-24.482h206.777c23.709-36.355 37.524-79.783 37.524-126.401 0-127.506-103.249-231.241-230.161-231.241s-230.159 103.733-230.159 231.241 103.248 231.245 230.159 231.245c57.188 0 109.563-21.070 149.86-55.879zM658.275 504.634v-36.279h-1.413c-4.24 12.514-9.349 24.625-15.233 36.279zM717.196 419.391v-121.52h-57.238c7.6 25.468 11.707 52.441 11.707 80.362 0 13.98-1.038 27.723-3.015 41.158zM108.924 248.907h36.488c46.591-89.584 139.976-150.879 247.354-150.879 107.38 0 200.765 61.295 247.356 150.879h36.481c-32.203-120.528-143.375-199.942-283.838-199.942-140.272 0-251.67 79.489-283.842 199.942z"></path>
<path fill="#f8c825" d="M642.983 669.28h-500.938c-77.353 0-140.285 63.226-140.285 140.944v188.373c0 13.523 10.91 24.482 24.368 24.482s24.368-10.96 24.368-24.482v-188.373c0-50.717 41.069-91.979 91.55-91.979h500.938c50.481 0 91.552 41.262 91.552 91.981v188.373c0 13.523 10.908 24.482 24.368 24.482s24.368-10.96 24.368-24.482v-188.373c0-77.717-62.932-140.946-140.287-140.946z"></path>
</svg>
